<svg width="60" height="60" viewBox="0 0 60 60" fill="none" xmlns="http://www.w3.org/2000/svg">
<path fill-rule="evenodd" clip-rule="evenodd" d="M30.5 53.9811C28.996 54.8791 27.2693 55.3745 25.3333 55.3745C17.4172 55.3745 9 44.3845 9 34.1672C9 23.9499 15.4172 18.3745 23.3333 18.3745C25.944 18.3745 28.3917 19.2754 30.5 20.8496C32.6083 19.2754 35.056 18.3745 37.6667 18.3745C45.5828 18.3745 52 23.9499 52 34.1672C52 44.3845 43.5828 55.3745 35.6667 55.3745C33.7307 55.3745 32.004 54.8791 30.5 53.9811Z" fill="#C34040"/>
<path d="M30.5 53.9811L31.2689 52.6932L30.5 52.2341L29.7311 52.6932L30.5 53.9811ZM30.5 20.8496L29.6026 22.0515L30.5 22.7216L31.3974 22.0515L30.5 20.8496ZM29.7311 52.6932C28.4625 53.4506 27.002 53.8745 25.3333 53.8745V56.8745C27.5365 56.8745 29.5295 56.3076 31.2689 55.269L29.7311 52.6932ZM25.3333 53.8745C22.0433 53.8745 18.3487 51.5406 15.3873 47.6882C12.4594 43.8792 10.5 38.891 10.5 34.1672H7.5C7.5 39.6606 9.74925 45.2761 13.0089 49.5165C16.2351 53.7134 20.7072 56.8745 25.3333 56.8745V53.8745ZM10.5 34.1672C10.5 29.3796 11.9969 25.8295 14.2742 23.4844C16.5541 21.1366 19.7332 19.8745 23.3333 19.8745V16.8745C19.0173 16.8745 15.0297 18.4001 12.122 21.3944C9.21174 24.3913 7.5 28.7375 7.5 34.1672H10.5ZM23.3333 19.8745C25.5856 19.8745 27.724 20.6489 29.6026 22.0515L31.3974 19.6476C29.0594 17.902 26.3024 16.8745 23.3333 16.8745V19.8745ZM31.3974 22.0515C33.276 20.6489 35.4144 19.8745 37.6667 19.8745V16.8745C34.6976 16.8745 31.9406 17.902 29.6026 19.6476L31.3974 22.0515ZM37.6667 19.8745C41.2668 19.8745 44.4459 21.1366 46.7258 23.4844C49.0031 25.8295 50.5 29.3796 50.5 34.1672H53.5C53.5 28.7375 51.7883 24.3913 48.878 21.3944C45.9703 18.4001 41.9827 16.8745 37.6667 16.8745V19.8745ZM50.5 34.1672C50.5 38.891 48.5406 43.8792 45.6127 47.6882C42.6513 51.5406 38.9567 53.8745 35.6667 53.8745V56.8745C40.2929 56.8745 44.7649 53.7134 47.9911 49.5165C51.2508 45.2761 53.5 39.6606 53.5 34.1672H50.5ZM35.6667 53.8745C33.998 53.8745 32.5375 53.4506 31.2689 52.6932L29.7311 55.269C31.4705 56.3076 33.4635 56.8745 35.6667 56.8745V53.8745Z" fill="black"/>
<path d="M28.8493 18.4638C27.5796 14.5461 29.4787 11.5557 32.401 8.78722C34.3754 6.91674 37.4915 4.64619 38.6619 5.73714C39.8322 6.82808 39.1196 10.9187 37.5214 13.5602C35.5074 16.889 30.1189 22.3814 28.8493 18.4638Z" fill="#75B560" stroke="black" stroke-width="3"/>
</svg>
