<svg width="60" height="60" viewBox="0 0 60 60" fill="none" xmlns="http://www.w3.org/2000/svg">
<g clip-path="url(#clip0_352_1279)">
<path d="M45 49.5C45 47.5958 44.612 45.7103 43.8582 43.9511C43.1044 42.1919 41.9995 40.5934 40.6066 39.247C39.2137 37.9005 37.5601 36.8324 35.7403 36.1037C33.9204 35.3751 31.9698 35 30 35C28.0302 35 26.0796 35.3751 24.2597 36.1037C22.4399 36.8324 20.7863 37.9005 19.3934 39.247C18.0005 40.5934 16.8956 42.1919 16.1418 43.9511C15.388 45.7103 15 47.5958 15 49.5L30 49.5H45Z" fill="#ECAD32" stroke="black" stroke-width="3" stroke-linejoin="round"/>
<path d="M31.2544 33.0303C33.6434 28.2753 31.8038 24.0839 28.6137 19.9756C26.4584 17.1998 22.9233 13.6895 21.2148 14.8536C19.5063 16.0176 19.6151 21.3818 21.1389 25.0687C23.0591 29.7147 28.8654 37.7852 31.2544 33.0303Z" fill="#75B560" stroke="black" stroke-width="3"/>
<path d="M30.5595 33.0303C28.1705 28.2753 30.0102 24.0839 33.2002 19.9756C35.3555 17.1998 38.8907 13.6895 40.5992 14.8536C42.3077 16.0176 42.1989 21.3818 40.6751 25.0687C38.7548 29.7147 32.9486 37.7852 30.5595 33.0303Z" fill="#75B560" stroke="black" stroke-width="3"/>
<path d="M30.779 14.2857C26.2762 17.1215 25.6847 21.6605 26.2922 26.8263C26.7027 30.3166 27.9147 35.1489 29.9789 35.0354C32.0432 34.9219 34.7225 30.2735 35.3236 26.3297C36.081 21.3599 35.2818 11.45 30.779 14.2857Z" fill="#75B560" stroke="black" stroke-width="3"/>
</g>
<defs>
<clipPath id="clip0_352_1279">
<rect width="60" height="60" fill="white"/>
</clipPath>
</defs>
</svg>
