<svg width="60" height="60" viewBox="0 0 60 60" fill="none" xmlns="http://www.w3.org/2000/svg">
<path fill-rule="evenodd" clip-rule="evenodd" d="M15.6485 51.2027C19.0127 51.7438 23.3411 47.6485 24.0395 43.3063C24.7379 38.964 22.3917 36.1559 19.0275 35.6148C17.9178 35.4363 16.8158 35.652 15.812 36.1771C15.0236 35.3639 14.0449 34.8136 12.9352 34.6351C9.57098 34.094 6.46263 36.0249 5.76425 40.3671C5.06588 44.7094 7.89191 49.9554 11.2561 50.4965C12.0791 50.6288 12.847 50.5362 13.5477 50.2572C14.1255 50.7418 14.8256 51.0704 15.6485 51.2027Z" fill="#8B2A34"/>
<path d="M15.812 36.1771L14.7351 37.2212L15.5148 38.0254L16.5073 37.5062L15.812 36.1771ZM13.5477 50.2572L14.5115 49.1078L13.8251 48.5323L12.9928 48.8636L13.5477 50.2572ZM22.5585 43.0681C22.2705 44.8593 21.2067 46.682 19.8147 47.9943C18.3829 49.3443 16.9092 49.8862 15.8867 49.7218L15.4103 52.6837C17.752 53.0603 20.1246 51.8252 21.8727 50.1772C23.6606 48.4916 25.1102 46.0955 25.5205 43.5445L22.5585 43.0681ZM18.7893 37.0958C20.118 37.3095 21.1674 37.9525 21.8286 38.896C22.4877 39.8364 22.8567 41.214 22.5585 43.0681L25.5205 43.5445C25.9206 41.0563 25.4658 38.8587 24.2854 37.1743C23.107 35.4928 21.3012 34.4612 19.2657 34.1339L18.7893 37.0958ZM16.5073 37.5062C17.257 37.114 18.0335 36.9742 18.7893 37.0958L19.2657 34.1339C17.8021 33.8985 16.3745 34.19 15.1167 34.848L16.5073 37.5062ZM12.697 36.1161C13.4528 36.2377 14.1462 36.6138 14.7351 37.2212L16.889 35.133C15.901 34.1139 14.6369 33.3895 13.1734 33.1542L12.697 36.1161ZM7.24522 40.6053C7.54343 38.7512 8.32584 37.5589 9.24654 36.8725C10.1702 36.184 11.3683 35.9024 12.697 36.1161L13.1734 33.1542C11.1379 32.8268 9.0997 33.2401 7.45353 34.4673C5.80441 35.6966 4.68346 37.6408 4.28329 40.129L7.24522 40.6053ZM11.4943 49.0155C10.4718 48.851 9.24238 47.8743 8.30603 46.1435C7.39575 44.4609 6.95714 42.3965 7.24522 40.6053L4.28329 40.129C3.87299 42.68 4.49821 45.4098 5.66741 47.571C6.81054 49.684 8.67623 51.6008 11.018 51.9774L11.4943 49.0155ZM12.9928 48.8636C12.547 49.0412 12.0534 49.1054 11.4943 49.0155L11.018 51.9774C12.1049 52.1522 13.147 52.0313 14.1025 51.6509L12.9928 48.8636ZM15.8867 49.7218C15.3277 49.6319 14.8791 49.4161 14.5115 49.1078L12.5839 51.4067C13.3719 52.0674 14.3235 52.5089 15.4103 52.6837L15.8867 49.7218Z" fill="black"/>
<path fill-rule="evenodd" clip-rule="evenodd" d="M47.1217 50.1199C46.5907 50.6551 45.9237 51.0463 45.1165 51.2533C41.8159 52.0998 37.131 48.4175 36.0384 44.1574C34.9458 39.8972 37.0253 36.8863 40.326 36.0398C41.4146 35.7605 42.5317 35.8745 43.5791 36.3055C44.2898 35.4237 45.2141 34.7864 46.3026 34.5072C49.6032 33.6607 52.8752 35.2991 53.9678 39.5593C55.0604 43.8194 52.726 49.3019 49.4254 50.1484C48.618 50.3555 47.845 50.3336 47.1217 50.1199Z" fill="#8B2A34"/>
<path d="M47.1217 50.1199L47.5467 48.6814L46.6878 48.4276L46.057 49.0633L47.1217 50.1199ZM43.5791 36.3055L43.0084 37.6926L44.0441 38.1188L44.747 37.2468L43.5791 36.3055ZM46.057 49.0633C45.7191 49.4039 45.2922 49.6597 44.7439 49.8003L45.4892 52.7062C46.5552 52.4328 47.4623 51.9063 48.1865 51.1764L46.057 49.0633ZM44.7439 49.8003C43.7407 50.0576 42.2236 49.6527 40.6743 48.4394C39.1682 47.2598 37.9421 45.5421 37.4914 43.7847L34.5855 44.53C35.2274 47.0328 36.8901 49.2863 38.8246 50.8013C40.7161 52.2825 43.1917 53.2955 45.4892 52.7062L44.7439 49.8003ZM37.4914 43.7847C37.0249 41.9657 37.2664 40.5601 37.8367 39.5633C38.4088 38.5634 39.395 37.8271 40.6986 37.4927L39.9533 34.5868C37.9562 35.099 36.2524 36.2914 35.2328 38.0736C34.2113 39.8589 33.9594 42.0889 34.5855 44.53L37.4914 43.7847ZM40.6986 37.4927C41.4401 37.3026 42.226 37.3707 43.0084 37.6926L44.1499 34.9183C42.8373 34.3782 41.3892 34.2185 39.9533 34.5868L40.6986 37.4927ZM44.747 37.2468C45.2778 36.5883 45.9338 36.1503 46.6752 35.9602L45.9299 33.0542C44.4943 33.4224 43.3019 34.2592 42.4113 35.3641L44.747 37.2468ZM46.6752 35.9602C47.9788 35.6258 49.1977 35.7966 50.1804 36.3978C51.1601 36.9971 52.0483 38.1129 52.5148 39.9319L55.4207 39.1866C54.7947 36.7455 53.5006 34.912 51.7459 33.8387C49.9944 32.7672 47.927 32.542 45.9299 33.0542L46.6752 35.9602ZM52.5148 39.9319C52.9655 41.6893 52.7175 43.7851 51.965 45.5439C51.1909 47.3531 50.0559 48.4382 49.0527 48.6955L49.798 51.6014C52.0955 51.0122 53.778 48.9328 54.7231 46.7241C55.6897 44.465 56.0626 41.6895 55.4207 39.1866L52.5148 39.9319ZM49.0527 48.6955C48.5043 48.8361 48.0069 48.8173 47.5467 48.6814L46.6967 51.5584C47.683 51.8498 48.7317 51.8749 49.798 51.6014L49.0527 48.6955Z" fill="black"/>
<path d="M16.3516 35.2459C17.3932 28.1279 21.9765 12.4336 31.9764 6.60034C36.7168 10.9845 43.9299 29.3095 43.409 36.0802" stroke="black" stroke-width="3" stroke-linejoin="round"/>
</svg>
