<svg width="60" height="60" viewBox="0 0 60 60" fill="none" xmlns="http://www.w3.org/2000/svg">
<path d="M20 18C20 12.4772 24.4772 8 30 8C35.5228 8 40 12.4772 40 18V38C40 41.866 36.866 45 33 45H27C23.134 45 20 41.866 20 38V18Z" fill="#E7CF50" stroke="black" stroke-width="3"/>
<path d="M30.4645 48.015C30.1508 41.4042 34.3585 37.5697 40.059 34.5116C43.9105 32.4454 49.7013 30.2411 51.0551 32.4271C52.409 34.613 49.5761 40.6546 45.9822 44.0752C41.4533 48.3857 30.7782 54.6257 30.4645 48.015Z" fill="#75B560" stroke="black" stroke-width="3"/>
<path d="M29.723 48.0686C30.0367 41.4578 25.829 37.6233 20.1285 34.5652C16.277 32.499 10.4862 30.2947 9.13236 32.4806C7.77854 34.6666 10.6114 40.7082 14.2053 44.1288C18.7342 48.4393 29.4093 54.6793 29.723 48.0686Z" fill="#75B560" stroke="black" stroke-width="3"/>
</svg>
