<svg width="60" height="60" viewBox="0 0 60 60" fill="none" xmlns="http://www.w3.org/2000/svg">
<path d="M24.0449 32.8416C24.0449 30.1421 25.9418 27.7344 29.8087 24.5971C33.0919 21.8976 34.1134 20.7302 34.1134 18.4685C34.1134 15.8419 32.1434 14.0179 29.5169 14.0179C26.8903 14.0179 24.8474 15.8419 23.4612 19.5629L15.4356 16.0608C17.4785 8.7648 22.8046 4.97088 29.8087 4.97088C37.9073 4.97088 44.1818 10.151 44.1818 17.7389C44.1818 21.8246 42.4308 24.6701 38.1262 28.391C34.1134 31.8931 33.019 32.8416 33.019 34.8115C33.019 35.2493 33.0919 35.76 33.1649 36.3437H24.8474C24.3367 35.1763 24.0449 34.009 24.0449 32.8416ZM22.4398 48.0902C22.4398 44.2963 25.4311 41.305 29.298 41.305C33.1649 41.305 36.0833 44.2963 36.0833 48.0902C36.0833 51.9571 33.1649 54.8755 29.298 54.8755C25.4311 54.8755 22.4398 51.9571 22.4398 48.0902Z" fill="#8F8F8F" fill-opacity="0.75"/>
<path d="M29.8087 24.5971L30.716 25.7154L30.7233 25.7094L29.8087 24.5971ZM23.4612 19.5629L22.8853 20.8827L24.2795 21.4911L24.8106 20.0656L23.4612 19.5629ZM15.4356 16.0608L14.0489 15.6725L13.711 16.8794L14.8597 17.3806L15.4356 16.0608ZM38.1262 28.391L37.1845 27.3016L37.1793 27.3061L38.1262 28.391ZM33.1649 36.3437V37.7837H34.7961L34.5938 36.1651L33.1649 36.3437ZM24.8474 36.3437L23.5282 36.9209L23.9057 37.7837H24.8474V36.3437ZM25.4849 32.8416C25.4849 30.8832 26.8369 28.8625 30.716 25.7154L28.9015 23.4789C25.0468 26.6063 22.6049 29.4009 22.6049 32.8416H25.4849ZM30.7233 25.7094C32.3491 24.3727 33.5663 23.2985 34.3553 22.2177C35.2149 21.0402 35.5534 19.8802 35.5534 18.4685H32.6734C32.6734 19.3185 32.5011 19.8731 32.0292 20.5196C31.4867 21.2628 30.5516 22.1221 28.8942 23.4848L30.7233 25.7094ZM35.5534 18.4685C35.5534 14.9856 32.8763 12.5779 29.5169 12.5779V15.4579C31.4106 15.4579 32.6734 16.6982 32.6734 18.4685H35.5534ZM29.5169 12.5779C26.0121 12.5779 23.5912 15.0893 22.1118 19.0602L24.8106 20.0656C26.1037 16.5946 27.7686 15.4579 29.5169 15.4579V12.5779ZM24.0371 18.2431L16.0115 14.741L14.8597 17.3806L22.8853 20.8827L24.0371 18.2431ZM16.8223 16.4491C17.7718 13.058 19.4548 10.5721 21.6298 8.92877C23.8061 7.28442 26.5715 6.41088 29.8087 6.41088V3.53088C26.0418 3.53088 22.6421 4.5543 19.8936 6.63091C17.1438 8.70856 15.1423 11.7676 14.0489 15.6725L16.8223 16.4491ZM29.8087 6.41088C37.3081 6.41088 42.7418 11.1292 42.7418 17.7389H45.6218C45.6218 9.17292 38.5065 3.53088 29.8087 3.53088V6.41088ZM42.7418 17.7389C42.7418 19.5496 42.3607 21.0302 41.5217 22.4808C40.6623 23.9667 39.2855 25.4855 37.1845 27.3016L39.0679 29.4805C41.2715 27.5756 42.9225 25.8112 44.0148 23.9227C45.1275 21.9989 45.6218 20.0139 45.6218 17.7389H42.7418ZM37.1793 27.3061C35.2176 29.0182 33.8313 30.2205 32.966 31.2486C32.513 31.7869 32.152 32.3334 31.9124 32.9431C31.6688 33.563 31.579 34.1761 31.579 34.8115H34.459C34.459 34.462 34.5059 34.2178 34.5929 33.9964C34.6839 33.7648 34.8474 33.4859 35.1695 33.1031C35.8546 32.289 37.022 31.266 39.073 29.476L37.1793 27.3061ZM31.579 34.8115C31.579 35.364 31.6701 35.9948 31.736 36.5223L34.5938 36.1651C34.5138 35.5252 34.459 35.1346 34.459 34.8115H31.579ZM33.1649 34.9037H24.8474V37.7837H33.1649V34.9037ZM26.1667 35.7665C25.7157 34.7355 25.4849 33.7659 25.4849 32.8416H22.6049C22.6049 34.252 22.9578 35.6171 23.5282 36.9209L26.1667 35.7665ZM23.8798 48.0902C23.8798 45.1017 26.2163 42.745 29.298 42.745V39.865C24.646 39.865 20.9998 43.491 20.9998 48.0902H23.8798ZM29.298 42.745C32.3594 42.745 34.6433 45.0814 34.6433 48.0902H37.5233C37.5233 43.5112 33.9703 39.865 29.298 39.865V42.745ZM34.6433 48.0902C34.6433 51.1618 32.3696 53.4355 29.298 53.4355V56.3155C33.9602 56.3155 37.5233 52.7524 37.5233 48.0902H34.6433ZM29.298 53.4355C26.2061 53.4355 23.8798 51.1416 23.8798 48.0902H20.9998C20.9998 52.7726 24.6562 56.3155 29.298 56.3155V53.4355Z" fill="black"/>
</svg>
