<svg width="60" height="60" viewBox="0 0 60 60" fill="none" xmlns="http://www.w3.org/2000/svg">
<path d="M24.0449 32.8416C24.0449 30.1421 25.9418 27.7344 29.8087 24.5971C33.0919 21.8976 34.1134 20.7302 34.1134 18.4685C34.1134 15.8419 32.1434 14.0179 29.5169 14.0179C26.8903 14.0179 24.8474 15.8419 23.4612 19.5629L15.4356 16.0608C17.4785 8.7648 22.8046 4.97088 29.8087 4.97088C37.9073 4.97088 44.1818 10.151 44.1818 17.7389C44.1818 21.8246 42.4308 24.6701 38.1262 28.391C34.1134 31.8931 33.019 32.8416 33.019 34.8115C33.019 35.2493 33.0919 35.76 33.1649 36.3437H24.8474C24.3367 35.1763 24.0449 34.009 24.0449 32.8416ZM22.4398 48.0902C22.4398 44.2963 25.4311 41.305 29.298 41.305C33.1649 41.305 36.0833 44.2963 36.0833 48.0902C36.0833 51.9571 33.1649 54.8755 29.298 54.8755C25.4311 54.8755 22.4398 51.9571 22.4398 48.0902Z" fill="#8F8F8F" fill-opacity="0.75"/>
<path d="M29.8087 24.5971L31.6232 26.8336L31.6306 26.8277L31.6378 26.8217L29.8087 24.5971ZM23.4612 19.5629L22.3094 22.2025L25.0979 23.4193L26.16 20.5683L23.4612 19.5629ZM15.4356 16.0608L12.6623 15.2843L11.9864 17.698L14.2838 18.7004L15.4356 16.0608ZM38.1262 28.391L36.2428 26.2122L36.2325 26.2212L38.1262 28.391ZM33.1649 36.3437V39.2237H36.4273L36.0226 35.9865L33.1649 36.3437ZM24.8475 36.3437L22.2089 37.498L22.9639 39.2237H24.8475V36.3437ZM26.9249 32.8416C26.9249 31.6244 27.732 29.9907 31.6232 26.8336L27.9942 22.3606C24.1517 25.4782 21.1649 28.6597 21.1649 32.8416H26.9249ZM31.6378 26.8217C33.2478 25.498 34.6061 24.3164 35.5184 23.0667C36.5718 21.6237 36.9934 20.161 36.9934 18.4685H31.2334C31.2334 19.0377 31.1442 19.2895 30.8661 19.6706C30.4469 20.2449 29.6529 20.9968 27.9796 22.3725L31.6378 26.8217ZM36.9934 18.4685C36.9934 14.1294 33.6092 11.1379 29.5169 11.1379V16.8979C30.6777 16.8979 31.2334 17.5545 31.2334 18.4685H36.9934ZM29.5169 11.1379C25.1338 11.1379 22.3349 14.3366 20.7624 18.5574L26.16 20.5683C27.36 17.3472 28.6468 16.8979 29.5169 16.8979V11.1379ZM24.613 16.9232L16.5875 13.4212L14.2838 18.7004L22.3094 22.2025L24.613 16.9232ZM18.2089 16.8373C19.0865 13.7033 20.6103 11.5038 22.4978 10.0777C24.3881 8.64949 26.8364 7.85088 29.8087 7.85088V2.09088C25.7769 2.09088 22.06 3.18924 19.0255 5.48199C15.9883 7.7768 13.8276 11.1223 12.6623 15.2843L18.2089 16.8373ZM29.8087 7.85088C36.7088 7.85088 41.3018 12.1073 41.3018 17.7389H47.0618C47.0618 8.19479 39.1057 2.09088 29.8087 2.09088V7.85088ZM41.3018 17.7389C41.3018 19.3174 40.9773 20.5459 40.2752 21.7598C39.5322 23.0445 38.2924 24.4405 36.2428 26.2122L40.0096 30.5699C42.2645 28.6206 44.0526 26.7334 45.2613 24.6437C46.5108 22.4832 47.0618 20.2461 47.0618 17.7389H41.3018ZM36.2325 26.2212C34.3153 27.8943 32.8196 29.1862 31.8643 30.3214C31.3458 30.9375 30.8861 31.6176 30.5722 32.4164C30.2503 33.2356 30.139 34.0331 30.139 34.8115H35.899C35.899 34.605 35.9245 34.5452 35.9331 34.523C35.9499 34.4805 36.0146 34.3353 36.2713 34.0303C36.8663 33.3232 37.9242 32.3899 40.0199 30.5609L36.2325 26.2212ZM30.139 34.8115C30.139 35.4787 30.2482 36.2296 30.3071 36.7009L36.0226 35.9865C35.9356 35.2904 35.899 35.0198 35.899 34.8115H30.139ZM33.1649 33.4637H24.8475V39.2237H33.1649V33.4637ZM27.486 35.1893C27.0946 34.2947 26.9249 33.5228 26.9249 32.8416H21.1649C21.1649 34.4951 21.5789 36.0579 22.2089 37.498L27.486 35.1893ZM25.3198 48.0902C25.3198 45.9071 27.0015 44.185 29.298 44.185V38.425C23.8608 38.425 19.5598 42.6856 19.5598 48.0902H25.3198ZM29.298 44.185C31.554 44.185 33.2033 45.8665 33.2033 48.0902H38.9633C38.9633 42.7261 34.7758 38.425 29.298 38.425V44.185ZM33.2033 48.0902C33.2033 50.3665 31.5743 51.9955 29.298 51.9955V57.7555C34.7555 57.7555 38.9633 53.5477 38.9633 48.0902H33.2033ZM29.298 51.9955C26.981 51.9955 25.3198 50.3262 25.3198 48.0902H19.5598C19.5598 53.5881 23.8812 57.7555 29.298 57.7555V51.9955Z" fill="black" fill-opacity="0.75"/>
</svg>
